<?xml version="1.0" standalone="no"?>
<!DOCTYPE svg PUBLIC "-//W3C//DTD SVG 20010904//EN"
 "http://www.w3.org/TR/2001/REC-SVG-20010904/DTD/svg10.dtd">
<svg version="1.0" xmlns="http://www.w3.org/2000/svg"
 width="128.000000pt" height="128.000000pt" viewBox="0 0 128.000000 128.000000"
 preserveAspectRatio="xMidYMid meet">
<metadata>
Created by potrace 1.15, written by Peter Selinger 2001-2017
</metadata>
<g transform="translate(0.000000,128.000000) scale(0.100000,-0.100000)"
fill="#000000" stroke="none">
<path d="M192 1263 c-66 -23 -147 -103 -172 -170 -20 -54 -21 -70 -18 -472 3
-410 3 -417 26 -458 31 -59 86 -111 146 -139 l51 -24 416 0 416 0 61 31 c69
34 104 71 138 144 24 50 24 51 24 465 l0 415 -24 52 c-32 68 -95 127 -162 153
-52 19 -75 20 -457 19 -332 0 -409 -3 -445 -16z m911 -43 c56 -28 102 -76 128
-134 17 -38 19 -74 19 -446 l0 -405 -24 -50 c-29 -62 -76 -107 -138 -135 -46
-20 -63 -21 -449 -20 -382 0 -404 1 -448 21 -56 25 -94 60 -129 119 l-27 45
-3 405 c-2 351 -1 410 13 447 28 73 69 118 136 152 l63 32 406 -3 405 -3 48
-25z"/>
<path d="M569 1104 c-8 -9 -18 -37 -24 -62 -9 -40 -14 -47 -49 -59 -37 -12
-41 -12 -72 12 -47 36 -73 32 -122 -18 -48 -49 -52 -74 -21 -124 36 -58 12
-123 -46 -123 -18 0 -43 -9 -56 -19 -20 -16 -24 -28 -24 -79 0 -72 21 -102 70
-102 38 0 58 -15 75 -57 11 -30 10 -36 -14 -67 -36 -48 -33 -73 16 -123 49
-50 78 -55 127 -19 27 20 38 23 64 15 38 -11 57 -33 57 -69 0 -14 7 -36 16
-48 13 -19 24 -22 83 -22 62 0 70 2 85 25 9 13 16 40 16 59 0 35 5 39 62 56
20 6 34 3 62 -16 50 -35 75 -31 124 19 48 49 52 73 18 123 -19 28 -22 42 -16
62 18 59 20 62 65 62 57 0 70 18 70 95 0 72 -20 105 -65 105 -35 0 -58 19 -69
57 -8 26 -5 37 15 67 35 50 31 75 -19 124 -49 48 -73 52 -123 18 -35 -23 -38
-24 -80 -9 -41 14 -44 17 -44 51 -1 21 -9 47 -19 60 -16 19 -29 22 -84 22 -48
0 -68 -4 -78 -16z m147 -75 c5 -29 16 -55 24 -59 8 -5 34 -16 56 -25 40 -16
43 -16 70 1 16 10 35 24 42 31 19 19 24 17 66 -26 l37 -38 -32 -46 -32 -46 23
-55 c12 -30 29 -57 39 -60 9 -2 31 -7 49 -11 32 -7 32 -7 32 -65 l0 -59 -37
-6 c-55 -9 -63 -15 -84 -70 -18 -48 -18 -51 -2 -82 10 -18 21 -33 24 -33 19 0
15 -33 -7 -60 -35 -42 -59 -53 -76 -37 -7 7 -26 20 -41 30 -27 17 -30 17 -75
1 -65 -24 -69 -28 -76 -84 l-7 -50 -59 0 -59 0 -6 45 c-9 56 -19 68 -77 89
l-48 18 -45 -33 -45 -33 -35 34 c-19 19 -35 40 -35 47 0 15 29 64 44 74 9 7 7
19 -16 79 -20 53 -27 60 -56 60 -65 0 -72 8 -72 70 l0 57 51 9 c29 5 55 16 59
24 5 8 16 34 25 57 l18 42 -32 39 c-17 22 -31 44 -31 49 0 5 18 26 39 47 l40
39 41 -33 c24 -19 47 -30 58 -27 94 30 96 32 111 91 l13 56 58 0 57 0 9 -51z"/>
<path d="M575 821 c-75 -34 -134 -117 -135 -189 0 -106 123 -221 224 -210 89
10 184 105 194 194 3 32 -1 54 -18 86 -60 118 -165 165 -265 119z m127 -33
c52 -15 105 -77 113 -132 18 -115 -97 -219 -206 -187 -122 37 -167 186 -82
277 45 49 104 63 175 42z"/>
</g>
</svg>
